<?xml version="1.0" encoding="UTF-8"?>
<svg xmlns="http://www.w3.org/2000/svg" xmlns:xlink="http://www.w3.org/1999/xlink" width="400px" height="400px" viewBox="0 0 400 400" version="1.1">
<g id="surface1">
<path style=" stroke:none;fill-rule:nonzero;fill:rgb(0%,0%,0%);fill-opacity:1;" d="M 83.332031 233.332031 C 73.933594 233.332031 66.027344 230.128906 59.617188 223.714844 C 53.207031 217.304688 50 209.398438 50 200 C 50 190.601562 53.207031 182.695312 59.617188 176.285156 C 66.027344 169.871094 73.933594 166.667969 83.332031 166.667969 L 83.332031 116.667969 C 83.332031 112.253906 85.003906 108.371094 88.351562 105.015625 C 91.707031 101.671875 95.589844 100 100 100 L 166.667969 100 C 166.667969 90.601562 169.871094 82.695312 176.285156 76.285156 C 182.695312 69.871094 190.601562 66.667969 200 66.667969 C 209.398438 66.667969 217.304688 69.871094 223.714844 76.285156 C 230.128906 82.695312 233.332031 90.601562 233.332031 100 L 300 100 C 304.410156 100 308.292969 101.671875 311.648438 105.015625 C 314.996094 108.371094 316.667969 112.253906 316.667969 116.667969 L 316.667969 166.667969 C 326.066406 166.667969 333.972656 169.871094 340.382812 176.285156 C 346.792969 182.695312 350 190.601562 350 200 C 350 209.398438 346.792969 217.304688 340.382812 223.714844 C 333.972656 230.128906 326.066406 233.332031 316.667969 233.332031 L 316.667969 316.667969 C 316.667969 321.078125 314.996094 324.960938 311.648438 328.316406 C 308.292969 331.660156 304.410156 333.332031 300 333.332031 L 100 333.332031 C 95.589844 333.332031 91.707031 331.660156 88.351562 328.316406 C 85.003906 324.960938 83.332031 321.078125 83.332031 316.667969 Z M 149.964844 208.332031 C 154.578125 208.332031 158.515625 206.714844 161.785156 203.484375 C 165.039062 200.25 166.667969 196.320312 166.667969 191.699219 C 166.667969 187.089844 165.050781 183.148438 161.816406 179.882812 C 158.582031 176.628906 154.65625 175 150.035156 175 C 145.421875 175 141.484375 176.617188 138.214844 179.851562 C 134.960938 183.082031 133.332031 187.011719 133.332031 191.632812 C 133.332031 196.246094 134.949219 200.183594 138.183594 203.449219 C 141.417969 206.707031 145.34375 208.332031 149.964844 208.332031 Z M 249.964844 208.332031 C 254.578125 208.332031 258.515625 206.714844 261.785156 203.484375 C 265.039062 200.25 266.667969 196.320312 266.667969 191.699219 C 266.667969 187.089844 265.050781 183.148438 261.816406 179.882812 C 258.582031 176.628906 254.65625 175 250.035156 175 C 245.421875 175 241.484375 176.617188 238.214844 179.851562 C 234.960938 183.082031 233.332031 187.011719 233.332031 191.632812 C 233.332031 196.246094 234.949219 200.183594 238.183594 203.449219 C 241.417969 206.707031 245.34375 208.332031 249.964844 208.332031 Z M 150 275 L 250 275 C 252.367188 275 254.34375 274.199219 255.933594 272.601562 C 257.535156 271 258.332031 269.015625 258.332031 266.648438 C 258.332031 264.285156 257.535156 262.304688 255.933594 260.714844 C 254.34375 259.128906 252.367188 258.332031 250 258.332031 L 150 258.332031 C 147.632812 258.332031 145.65625 259.132812 144.066406 260.734375 C 142.464844 262.332031 141.667969 264.316406 141.667969 266.683594 C 141.667969 269.050781 142.464844 271.027344 144.066406 272.617188 C 145.65625 274.207031 147.632812 275 150 275 Z M 150 275 "/>
</g>
</svg>
