<svg xmlns="http://www.w3.org/2000/svg" width="48" height="48"><path d="M33.059 12l-.118-.484c-.53-2.114-1.359-4.407-2.714-6.215C28.828 3.437 26.785 2 24 2s-4.828 1.438-6.227 3.3c-1.355 1.81-2.187 4.102-2.714 6.216L14.94 12h-3.199a6.001 6.001 0 00-5.988 5.602l-1.465 22A6.001 6.001 0 0010.277 46h27.446a6.001 6.001 0 005.988-6.398l-1.465-22A6.001 6.001 0 0036.258 12zM14.94 29c1.149 0 3.055-7.863 3.059-9.004v-.14l.016-.473c.011-.41.043-1.004.101-1.715.043-.508.102-1.07.176-1.668h11.414c.074.598.133 1.16.176 1.668.058.71.09 1.305.101 1.715l.016.472V20s.941 9 2.941 9S34 19.996 34 19.996c0-.07 0-.14-.004-.21 0-.13-.004-.313-.012-.544a44.59 44.59 0 00-.25-3.242h2.524a2 2 0 011.996 1.867l1.465 22A1.999 1.999 0 0137.723 42H10.277c-1.16 0-2.074-.98-1.996-2.133l1.465-22A2 2 0 0111.742 16h2.524a44.59 44.59 0 00-.25 3.242c-.008.23-.012.414-.012.543-.004.07-.004.14-.004.207 0 1.14-.2 9.008.941 9.008zm4.125-17h9.868c-.465-1.695-1.09-3.21-1.91-4.3C26.171 6.561 25.213 6 24 6c-1.215 0-2.172.563-3.023 1.7-.82 1.09-1.446 2.605-1.91 4.3zm0 0" fill-rule="evenodd" fill="#0f0f0f"/></svg>