<svg xmlns="http://www.w3.org/2000/svg" width="45" height="48" viewBox="0 0 45 45"><path d="M8.824 4.922c-2.11.562-3.62 1.46-5.308 3.148C1.773 9.828.914 11.336.336 13.71c-.844 3.376.101 8.032 2.477 12.2 2.707 4.73 8.453 10.442 14.64 14.574 2.867 1.899 3.656 2.32 4.188 2.18.613-.16 4.093-2.41 6.308-4.078 8.403-6.367 13.395-13.047 14.504-19.375.524-2.984.242-5.586-.863-7.875-1.95-4.094-5.555-6.5-10.055-6.711-1.707-.09-2.129-.055-3.254.297-2.23.668-3.601 1.492-5.36 3.25l-1.616 1.601-.649-.789C19.16 7.137 16.523 5.43 14.31 4.852c-1.477-.387-3.887-.352-5.485.07zm5.535 2.305c2.235.718 4.47 2.617 5.594 4.761 1.035 1.969 1.86 1.989 2.793.051.598-1.21 2.09-2.828 3.395-3.707 3.004-2.004 6.836-2.039 9.824-.105 1.918 1.23 3.394 3.093 4.043 5.062.476 1.461.476 4.938 0 6.664-1.742 6.328-7.508 12.988-16.399 18.93-1.125.758-2.148 1.37-2.234 1.37-.086 0-1.195-.683-2.46-1.526-6.856-4.555-12.22-10.075-14.696-15.086-1.282-2.582-1.758-4.22-1.883-6.5-.156-2.973.617-5.243 2.5-7.262 2.562-2.777 6.062-3.746 9.523-2.652zm0 0"/></svg>