<svg width="18" height="18" fill="none" xmlns="http://www.w3.org/2000/svg"><path d="M9 4.875a4.125 4.125 0 100 8.25 4.125 4.125 0 000-8.25zm0 6.875a2.75 2.75 0 110-5.5 2.75 2.75 0 010 5.5zM13.125.062h-8.25A4.818 4.818 0 00.062 4.875v8.25a4.818 4.818 0 004.813 4.813h8.25a4.817 4.817 0 004.813-4.813v-8.25A4.818 4.818 0 0013.125.062zm3.438 13.063a3.438 3.438 0 01-3.438 3.438h-8.25a3.438 3.438 0 01-3.438-3.438v-8.25a3.437 3.437 0 013.438-3.438h8.25a3.438 3.438 0 013.438 3.438v8.25zM14.5 4.531a1.031 1.031 0 11-2.063 0 1.031 1.031 0 012.063 0z" fill="#000"/></svg>