<svg xmlns="http://www.w3.org/2000/svg" width="173" height="48"><path d="M46.254 3.965c6.238 1.98 7.785 5.719 10.805 11.285l1.62 2.805c3.868 6.808 3.868 6.808 3.868 9.945 3.465-3.16 5.7-6.547 8.066-10.582.676-1.14 1.348-2.281 2.043-3.453 1.871-3.211 1.871-3.211 3.281-6.32 1.247-2.313 1.247-2.313 3.825-3.395C82.508 4 82.508 4 86.5 5.332v41.336c-3.074-.441-6.148-.883-9.316-1.336L75.855 28 66.54 41.332C59.883 40 59.883 40 57.49 36.953c-1.864-3.43-3.727-6.86-5.59-10.285v18.664c-5.27.66-5.27.66-10.645 1.336a6450.03 6450.03 0 01-.074-17.586c-.004-1.996-.016-3.992-.028-5.988-.015-2.864-.023-5.727-.027-8.59l-.023-5.227c.203-5.265.203-5.265 5.152-5.312zM75.855 24l1.329 2.668zm0 0" fill="#ab5c3c"/><path d="M161.422 5.191a122.712 122.712 0 017.586 4.141c0 4 0 4-1.996 6.25l-1.996 1.75c-1.153-.437-2.305-.879-3.493-1.332-6.242-1.852-11.578-1.918-17.8 0-1.993 6.234-2.059 12.477 0 18.668 4.644 1.969 9.68 1.426 14.64 1.332.438-3.96.875-7.922 1.328-12h9.317c.144 2.805.246 5.61.332 8.418.062 1.562.125 3.125.187 4.734-.52 4.18-.52 4.18-2.59 6.703-4.476 2.036-8.164 2.055-13.066 2.063l-5.187.078c-6.485-.867-10.547-3.297-14.891-8.184-3.363-5.933-4.684-11.023-3.379-17.812 2.594-7.176 6.617-10.957 13.309-14.668 6.086-2.031 11.707-2.473 17.699-.14zm0 0" fill="#b2684b"/><path d="M94.484 5.332h31.938v8c-6.586.441-13.172.883-19.961 1.336-.438 2.2-.879 4.398-1.332 6.664h18.633v8h-18.633v8h21.293c1.332 2.668 1.332 2.668 0 8H95.816c-.441-13.2-.879-26.398-1.332-40zm0 0" fill="#b26649"/><path d="M30.773 5.332l2.497 1.336c-.5 3.914-.5 3.914-1.333 8-4.128 2.066-7.523.293-11.851-.836-2.852-.797-2.852-.797-5.45.836v4c.981.21 1.962.422 2.97.64C31.82 22.712 31.82 22.712 35.93 29.333c.48 3.887.277 7.086-1.328 10.668-3.91 4.223-6.059 5.262-11.825 5.95a200.802 200.802 0 01-5.644-.118c-.953 0-1.903-.004-2.883-.004-4.984-.086-7.355-.332-11.59-3.16.442-2.64.88-5.281 1.332-8 .824.219 1.649.437 2.496.664 5.828.938 11.574.77 17.465.668.442-1.32.879-2.64 1.332-4l-3.262-.64c-6.425-1.407-11.578-2.575-17.03-6.36C1.93 20.184 1.66 17.61 2.66 12 9.957 2.914 19.984 1.875 30.773 5.332zm0 0" fill="#b46b4f"/><path d="M167.055 8.168c.644.383 1.289.77 1.953 1.164 0 4 0 4-1.996 6.25l-1.996 1.75c-1.153-.437-2.305-.879-3.493-1.332-6.546-1.941-11.207-1.652-17.8 0-.88 3.96-1.758 7.922-2.66 12h-1.333V16h2.66V9.332c-2.195.883-4.39 1.762-6.652 2.668 9.192-10.23 19.88-10.18 31.317-3.832zm0 0" fill="#b57055"/><path d="M122.43 21.332h1.332v8h-18.633v8h21.293c1.332 2.668 1.332 2.668 0 8H95.816v-4h3.993c.437-1.758.879-3.52 1.328-5.332l1.332 1.332c.441-3.078.879-6.16 1.332-9.332h18.629v-6.668zm0 0" fill="#bc7c65"/><path d="M85.168 5.332V44h-6.652V21.332h-2.66c.078-2.168.195-4.332.332-6.5.062-1.207.12-2.41.187-3.656C77.184 8 77.184 8 79.742 6.238c2.766-.906 2.766-.906 5.426-.906zm0 0" fill="#a65230"/><path d="M30.773 5.332l2.497 1.336c-.5 3.914-.5 3.914-1.333 8-4.128 2.066-7.523.293-11.851-.836-2.852-.797-2.852-.797-5.45.836l-2.66 4c-.437-1.32-.878-2.64-1.331-4-2.594.258-2.594.258-5.32 1.332-1.712 2.645-1.712 2.645-2.665 5.332-.578-5.914-.719-8.437 3.078-13.164 7.149-5.664 16.559-5.55 25.035-2.836zm0 0" fill="#c99883"/><path d="M159.691 24h9.317c.144 2.805.246 5.61.332 8.418.062 1.562.125 3.125.187 4.734-.52 4.18-.52 4.18-2.722 6.723-3.836 1.793-6.555 1.86-10.774 1.707l-3.969-.11c-.996-.046-1.992-.09-3.015-.14 1.758-.437 3.512-.879 5.324-1.332v-2.668h2.66v-2.664h-7.984v-1.336L158.363 36c.438-3.96.875-7.922 1.328-12zm0 0" fill="#bc7960"/><path d="M42.586 4c2.668.383 5.332.824 7.984 1.332L49.238 8c-2.195-.441-4.39-.879-6.652-1.332.437 7.918.879 15.84 1.328 24 .879-2.203 1.758-4.402 2.664-6.668 1.754-.441 3.512-.879 5.32-1.332v22.664c-5.27.66-5.27.66-10.644 1.336a6450.03 6450.03 0 01-.074-17.586c-.004-1.996-.016-3.992-.028-5.988-.015-2.864-.023-5.727-.027-8.59l-.023-5.227c.152-3.945.152-3.945 1.484-5.277zm0 0" fill="#b8755a"/><path d="M82.508 4v2.668c-1.317.437-2.637.879-3.992 1.332.082 1.445.082 1.445.168 2.918-.18 4.023-1.168 6.773-2.829 10.414h2.66V44h6.653V5.332H86.5v41.336c-3.074-.441-6.148-.883-9.316-1.336-.075-1.738-.075-1.738-.149-3.508C76.48 30.355 76.48 30.355 71.863 20c-.441-.879-.879-1.762-1.332-2.668 1.23-2.836 1.23-2.836 3.078-6.082l1.813-3.254C77.555 4.773 78.645 4 82.508 4zm-6.653 20l1.329 2.668zm0 0" fill="#bf856e"/><path d="M95.816 6.668h29.278V12c-7.906.441-15.813.879-23.957 1.332-.438-1.32-.875-2.64-1.328-4h-2.664v8h-1.329V6.668zm0 0" fill="#a65230"/><path d="M142.39 9.332V16h-2.66c.442 5.281.88 10.559 1.333 16-2.196.441-4.391.879-6.657 1.332-.437-.879-.875-1.758-1.328-2.664h3.992v-5.336l-5.324 4c-.07-2.137-.125-4.277-.168-6.414a630.058 630.058 0 00-.094-3.61c.262-3.308.262-3.308 2.922-7.308 2.887-1.715 4.617-2.668 7.985-2.668zm0 0" fill="#aa5737"/><path d="M42.586 6.668h6.652c2.078 3.75 2.078 3.75 3.992 8-.437 1.32-.878 2.64-1.332 4h-2.66c-.437.879-.879 1.758-1.332 2.664l-2.66 1.336a145.711 145.711 0 00-.832 10.75c-.05 1.012-.102 2.023-.156 3.062-.125 2.508-.235 5.012-.344 7.52h-1.328V6.668zm0 0" fill="#a6512e"/><path d="M161.023 25.332h7.985v16h-3.992c-.438-.879-.88-1.758-1.332-2.664h-2.66V25.332zm0 0" fill="#aa5736"/><path d="M106.46 38.668h18.634V44H95.816v-1.332l10.645-1.336v-2.664zm0 0" fill="#a5512d"/><path d="M23.953 24h5.324v2.668c.88.437 1.758.879 2.66 1.332-.437.441-.878.879-1.328 1.332.875 1.762 1.754 3.52 2.66 5.336-1.757 2.2-3.511 4.398-5.324 6.664-1.754-.437-3.511-.879-5.32-1.332.438-.879.875-1.762 1.328-2.668h2.664v-8h-6.656c1.664-2.664 1.664-2.664 3.992-5.332zm0 0" fill="#a85231"/><path d="M113.945 22.582c1.582.012 3.164.023 4.793.04l3.692.046V28h-17.301v-2.668c-.875-.437-1.754-.879-2.66-1.332 3.84-1.922 7.21-1.457 11.476-1.418zm0 0" fill="#a5502d"/><path d="M10.645 13.332c.168.855.332 1.707.5 2.586.414 1.36.414 1.36.832 2.75.878.437 1.757.879 2.66 1.332h-2.66c-.438 2.2-.88 4.398-1.332 6.668 1.32.437 2.636.879 3.992 1.332-7.649-1-7.649-1-10.645-4-.168-4.832-.168-4.832 0-9.332 2.196-.441 4.39-.883 6.653-1.336zm0 0" fill="#b56d50"/><path d="M23.953 5.332c.442 2.203.879 4.402 1.332 6.668H9.316c.438-1.762.88-3.52 1.329-5.332 4.625-1.547 8.464-1.426 13.308-1.336zm0 0" fill="#a75230"/><path d="M159.691 5.332C167.344 7.5 167.344 7.5 170.34 12c-2.145 2.77-2.145 2.77-5.324 5.332-4.012-.352-4.012-.352-8.317-1.664-1.433-.422-2.87-.84-4.347-1.273-1.09-.348-2.18-.7-3.305-1.063V12l11.976-1.332v2.664c1.317-.879 2.633-1.758 3.993-2.664-1.758-.441-3.512-.883-5.325-1.336v-4zm0 0" fill="#bf7f68"/><path d="M10.645 6.668c-.438 1.758-.875 3.52-1.329 5.332 2.196-.441 4.391-.879 6.653-1.332.441.879.879 1.758 1.332 2.664l-2.664 1.336-2.66 4c-.438-1.32-.88-2.64-1.332-4-2.594.258-2.594.258-5.32 1.332-1.712 2.645-1.712 2.645-2.665 5.332-.484-8.43-.484-8.43 1.746-12.582 2.246-2.082 2.246-2.082 6.239-2.082zm0 0" fill="#bc7c63"/><path d="M62.547 32h6.652c0 5.332 0 5.332-2.66 9.332-3.16-.25-3.16-.25-6.656-1.332-1.746-3.418-1.746-3.418-2.66-6.668 2.886.676 5.324 1.336 7.984 2.668v-2.668c-.879-.437-1.758-.879-2.66-1.332zm0 0" fill="#b46a4e"/><path d="M82.508 4v2.668c-1.317.437-2.637.879-3.992 1.332.082 1.445.082 1.445.168 2.918-.18 4.023-1.168 6.773-2.829 10.414.875.441 1.754.883 2.66 1.336h-2.66c-.44 1.32-.878 2.64-1.332 4-.41-1.047-.824-2.09-1.246-3.168-1.32-3.398-1.32-3.398-2.746-6.168 1.23-2.836 1.23-2.836 3.078-6.082l1.813-3.254C77.555 4.773 78.645 4 82.508 4zm0 0" fill="#b16648"/><path d="M149.047 5.332h10.644v4h6.657c-.442 1.32-.88 2.64-1.332 4h-3.993v-2.664L158.363 12c-3.105.055-6.21.059-9.316 0 .879-1.32 1.758-2.64 2.66-4-.879-.879-1.758-1.762-2.66-2.668zm0 0" fill="#a6522f"/><path d="M143.723 6.668v4c1.757.879 3.511 1.758 5.324 2.664l-2.559.95c-3.008 1.484-3.008 1.484-3.867 4.605l-.562 3.281c-.2 1.09-.399 2.18-.602 3.3-.129.837-.262 1.673-.394 2.532h-1.333V16h2.66V9.332c-2.195.883-4.39 1.762-6.652 2.668 4.992-5.332 4.992-5.332 7.985-5.332zm0 0" fill="#be7e65"/><path d="M130.414 20h1.332c.438 2.2.879 4.398 1.332 6.668 1.317-.441 2.633-.883 3.992-1.336v5.336L134.406 32l2.664 1.332-2.664 5.336c-4-6.68-4.383-11.105-3.992-18.668zm0 0" fill="#bd7e65"/><path d="M142.39 37.332c4.833.441 9.665.883 14.641 1.336v2.664h-2.66V44h-6.656v-2.668c-1.758-1.32-3.512-2.64-5.324-4zm0 0" fill="#a75231"/><path d="M29.277 24c2.578.75 2.578.75 5.325 2.668C35.766 31.25 35.766 31.25 35.93 36l-2.66 4c-.442-2.64-.88-5.281-1.333-8h-2.66v-8zm0 0" fill="#ba7c62"/><path d="M50.57 8c3.48 3.156 5.758 6.527 7.985 10.668v2.664L50.57 20l.746-2.25c.684-3.617.137-6.207-.746-9.75zm0 0" fill="#b9775d"/><path d="M71.863 18.668c2.66 2.664 2.66 2.664 2.66 8-1.757-.441-3.511-.883-5.324-1.336-.437.883-.879 1.762-1.328 2.668-.25-3.168-.25-3.168 0-6.668l3.992-2.664zm0 0" fill="#ab5b3a"/><path d="M66.54 24l7.983 2.668c-.878 2.2-1.757 4.398-2.66 6.664-2.199-2.2-4.394-4.398-6.656-6.664L66.539 24zm0 0" fill="#b77155"/><path d="M10.645 13.332l1.332 5.336-7.985 2.664v-6.664c2.196-.441 4.39-.883 6.653-1.336zm0 0" fill="#a65131"/><path d="M82.508 4v2.668c-1.317.437-2.637.879-3.992 1.332v6.668h-3.993c0-4.172.567-5.832 2.66-9.336C79.849 4 79.849 4 82.509 4zm0 0" fill="#c38a74"/><path d="M26.617 6.668h6.653V12c-2.196-.441-4.391-.879-6.653-1.332v-4zm0 0" fill="#b1654a"/></svg>