<?xml version="1.0" encoding="UTF-8"?>
<svg xmlns="http://www.w3.org/2000/svg" xmlns:xlink="http://www.w3.org/1999/xlink" width="173px" height="48px" viewBox="0 0 173 48" version="1.1">
<g id="surface1">
<path style=" stroke:none;fill-rule:nonzero;fill:rgb(67.058824%,36.078431%,23.529412%);fill-opacity:1;" d="M 46.253906 3.964844 C 52.492188 5.945312 54.039062 9.683594 57.058594 15.25 C 57.59375 16.175781 58.128906 17.101562 58.679688 18.054688 C 62.546875 24.863281 62.546875 24.863281 62.546875 28 C 66.011719 24.839844 68.246094 21.453125 70.613281 17.417969 C 71.289062 16.277344 71.960938 15.136719 72.65625 13.964844 C 74.527344 10.753906 74.527344 10.753906 75.9375 7.644531 C 77.183594 5.332031 77.183594 5.332031 79.761719 4.25 C 82.507812 4 82.507812 4 86.5 5.332031 C 86.5 18.972656 86.5 32.613281 86.5 46.667969 C 83.425781 46.226562 80.351562 45.785156 77.183594 45.332031 C 76.527344 36.753906 76.527344 36.753906 75.855469 28 C 72.78125 32.398438 69.707031 36.800781 66.539062 41.332031 C 59.882812 40 59.882812 40 57.488281 36.953125 C 55.625 33.523438 53.761719 30.09375 51.898438 26.667969 C 51.898438 32.828125 51.898438 38.988281 51.898438 45.332031 C 46.628906 45.992188 46.628906 45.992188 41.253906 46.667969 C 41.222656 40.804688 41.195312 34.941406 41.179688 29.082031 C 41.175781 27.085938 41.164062 25.089844 41.152344 23.09375 C 41.136719 20.230469 41.128906 17.367188 41.125 14.503906 C 41.117188 12.78125 41.109375 11.054688 41.101562 9.277344 C 41.304688 4.011719 41.304688 4.011719 46.253906 3.964844 Z M 75.855469 24 C 77.183594 26.667969 77.183594 26.667969 77.183594 26.667969 Z M 75.855469 24 "/>
<path style=" stroke:none;fill-rule:nonzero;fill:rgb(69.803922%,40.784314%,29.411765%);fill-opacity:1;" d="M 161.421875 5.191406 C 164.007812 6.496094 166.523438 7.851562 169.007812 9.332031 C 169.007812 13.332031 169.007812 13.332031 167.011719 15.582031 C 166.351562 16.160156 165.695312 16.738281 165.015625 17.332031 C 163.863281 16.894531 162.710938 16.453125 161.523438 16 C 155.28125 14.148438 149.945312 14.082031 143.722656 16 C 141.730469 22.234375 141.664062 28.476562 143.722656 34.667969 C 148.367188 36.636719 153.402344 36.09375 158.363281 36 C 158.800781 32.039062 159.238281 28.078125 159.691406 24 C 162.765625 24 165.839844 24 169.007812 24 C 169.152344 26.804688 169.253906 29.609375 169.339844 32.417969 C 169.402344 33.980469 169.464844 35.542969 169.527344 37.152344 C 169.007812 41.332031 169.007812 41.332031 166.9375 43.855469 C 162.460938 45.890625 158.773438 45.910156 153.871094 45.917969 C 151.300781 45.957031 151.300781 45.957031 148.683594 45.996094 C 142.199219 45.128906 138.136719 42.699219 133.792969 37.8125 C 130.429688 31.878906 129.109375 26.789062 130.414062 20 C 133.007812 12.824219 137.03125 9.042969 143.722656 5.332031 C 149.808594 3.300781 155.429688 2.859375 161.421875 5.191406 Z M 161.421875 5.191406 "/>
<path style=" stroke:none;fill-rule:nonzero;fill:rgb(69.803922%,40%,28.627451%);fill-opacity:1;" d="M 94.484375 5.332031 C 105.023438 5.332031 115.5625 5.332031 126.421875 5.332031 C 126.421875 7.972656 126.421875 10.613281 126.421875 13.332031 C 119.835938 13.773438 113.25 14.214844 106.460938 14.667969 C 106.023438 16.867188 105.582031 19.066406 105.128906 21.332031 C 111.277344 21.332031 117.425781 21.332031 123.761719 21.332031 C 123.761719 23.972656 123.761719 26.613281 123.761719 29.332031 C 117.613281 29.332031 111.464844 29.332031 105.128906 29.332031 C 105.128906 31.972656 105.128906 34.613281 105.128906 37.332031 C 112.15625 37.332031 119.183594 37.332031 126.421875 37.332031 C 127.753906 40 127.753906 40 126.421875 45.332031 C 116.324219 45.332031 106.222656 45.332031 95.816406 45.332031 C 95.375 32.132812 94.9375 18.933594 94.484375 5.332031 Z M 94.484375 5.332031 "/>
<path style=" stroke:none;fill-rule:nonzero;fill:rgb(70.588235%,41.960784%,30.980392%);fill-opacity:1;" d="M 30.773438 5.332031 C 31.597656 5.773438 32.421875 6.214844 33.269531 6.667969 C 32.769531 10.582031 32.769531 10.582031 31.9375 14.667969 C 27.808594 16.734375 24.414062 14.960938 20.085938 13.832031 C 17.234375 13.035156 17.234375 13.035156 14.636719 14.667969 C 14.636719 15.988281 14.636719 17.308594 14.636719 18.667969 C 15.617188 18.878906 16.597656 19.089844 17.605469 19.308594 C 31.820312 22.710938 31.820312 22.710938 35.929688 29.332031 C 36.410156 33.21875 36.207031 36.417969 34.601562 40 C 30.691406 44.222656 28.542969 45.261719 22.777344 45.949219 C 20.898438 45.9375 19.015625 45.898438 17.132812 45.832031 C 16.179688 45.832031 15.230469 45.828125 14.25 45.828125 C 9.265625 45.742188 6.894531 45.496094 2.660156 42.667969 C 3.101562 40.027344 3.539062 37.386719 3.992188 34.667969 C 4.816406 34.886719 5.640625 35.105469 6.488281 35.332031 C 12.316406 36.269531 18.0625 36.101562 23.953125 36 C 24.394531 34.679688 24.832031 33.359375 25.285156 32 C 23.671875 31.683594 23.671875 31.683594 22.023438 31.359375 C 15.597656 29.953125 10.445312 28.785156 4.992188 25 C 1.929688 20.183594 1.660156 17.609375 2.660156 12 C 9.957031 2.914062 19.984375 1.875 30.773438 5.332031 Z M 30.773438 5.332031 "/>
<path style=" stroke:none;fill-rule:nonzero;fill:rgb(70.980392%,43.921569%,33.333333%);fill-opacity:1;" d="M 167.054688 8.167969 C 167.699219 8.550781 168.34375 8.9375 169.007812 9.332031 C 169.007812 13.332031 169.007812 13.332031 167.011719 15.582031 C 166.351562 16.160156 165.695312 16.738281 165.015625 17.332031 C 163.863281 16.894531 162.710938 16.453125 161.523438 16 C 154.976562 14.058594 150.316406 14.347656 143.722656 16 C 142.84375 19.960938 141.964844 23.921875 141.0625 28 C 140.621094 28 140.183594 28 139.730469 28 C 139.730469 24.039062 139.730469 20.078125 139.730469 16 C 140.609375 16 141.488281 16 142.390625 16 C 142.390625 13.800781 142.390625 11.601562 142.390625 9.332031 C 140.195312 10.214844 138 11.09375 135.738281 12 C 144.929688 1.769531 155.617188 1.820312 167.054688 8.167969 Z M 167.054688 8.167969 "/>
<path style=" stroke:none;fill-rule:nonzero;fill:rgb(73.72549%,48.627451%,39.607843%);fill-opacity:1;" d="M 122.429688 21.332031 C 122.871094 21.332031 123.308594 21.332031 123.761719 21.332031 C 123.761719 23.972656 123.761719 26.613281 123.761719 29.332031 C 117.613281 29.332031 111.464844 29.332031 105.128906 29.332031 C 105.128906 31.972656 105.128906 34.613281 105.128906 37.332031 C 112.15625 37.332031 119.183594 37.332031 126.421875 37.332031 C 127.753906 40 127.753906 40 126.421875 45.332031 C 116.324219 45.332031 106.222656 45.332031 95.816406 45.332031 C 95.816406 44.011719 95.816406 42.691406 95.816406 41.332031 C 97.132812 41.332031 98.449219 41.332031 99.808594 41.332031 C 100.246094 39.574219 100.6875 37.8125 101.136719 36 C 101.578125 36.441406 102.015625 36.878906 102.46875 37.332031 C 102.910156 34.253906 103.347656 31.171875 103.800781 28 C 109.949219 28 116.097656 28 122.429688 28 C 122.429688 25.800781 122.429688 23.601562 122.429688 21.332031 Z M 122.429688 21.332031 "/>
<path style=" stroke:none;fill-rule:nonzero;fill:rgb(65.098039%,32.156863%,18.823529%);fill-opacity:1;" d="M 85.167969 5.332031 C 85.167969 18.09375 85.167969 30.851562 85.167969 44 C 82.972656 44 80.777344 44 78.515625 44 C 78.515625 36.519531 78.515625 29.039062 78.515625 21.332031 C 77.636719 21.332031 76.757812 21.332031 75.855469 21.332031 C 75.933594 19.164062 76.050781 17 76.1875 14.832031 C 76.25 13.625 76.308594 12.421875 76.375 11.175781 C 77.183594 8 77.183594 8 79.742188 6.238281 C 82.507812 5.332031 82.507812 5.332031 85.167969 5.332031 Z M 85.167969 5.332031 "/>
<path style=" stroke:none;fill-rule:nonzero;fill:rgb(78.823529%,59.607843%,51.372549%);fill-opacity:1;" d="M 30.773438 5.332031 C 31.597656 5.773438 32.421875 6.214844 33.269531 6.667969 C 32.769531 10.582031 32.769531 10.582031 31.9375 14.667969 C 27.808594 16.734375 24.414062 14.960938 20.085938 13.832031 C 17.234375 13.035156 17.234375 13.035156 14.636719 14.667969 C 13.320312 16.648438 13.320312 16.648438 11.976562 18.667969 C 11.539062 17.347656 11.097656 16.027344 10.644531 14.667969 C 8.050781 14.925781 8.050781 14.925781 5.324219 16 C 3.613281 18.644531 3.613281 18.644531 2.660156 21.332031 C 2.082031 15.417969 1.941406 12.894531 5.738281 8.167969 C 12.886719 2.503906 22.296875 2.617188 30.773438 5.332031 Z M 30.773438 5.332031 "/>
<path style=" stroke:none;fill-rule:nonzero;fill:rgb(73.72549%,47.45098%,37.647059%);fill-opacity:1;" d="M 159.691406 24 C 162.765625 24 165.839844 24 169.007812 24 C 169.152344 26.804688 169.253906 29.609375 169.339844 32.417969 C 169.402344 33.980469 169.464844 35.542969 169.527344 37.152344 C 169.007812 41.332031 169.007812 41.332031 166.804688 43.875 C 162.96875 45.667969 160.25 45.734375 156.03125 45.582031 C 154.066406 45.527344 154.066406 45.527344 152.0625 45.472656 C 151.066406 45.425781 150.070312 45.382812 149.046875 45.332031 C 150.804688 44.894531 152.558594 44.453125 154.371094 44 C 154.371094 43.121094 154.371094 42.238281 154.371094 41.332031 C 155.246094 41.332031 156.125 41.332031 157.03125 41.332031 C 157.03125 40.453125 157.03125 39.574219 157.03125 38.667969 C 154.394531 38.667969 151.761719 38.667969 149.046875 38.667969 C 149.046875 38.226562 149.046875 37.785156 149.046875 37.332031 C 153.65625 36.671875 153.65625 36.671875 158.363281 36 C 158.800781 32.039062 159.238281 28.078125 159.691406 24 Z M 159.691406 24 "/>
<path style=" stroke:none;fill-rule:nonzero;fill:rgb(72.156863%,45.882353%,35.294118%);fill-opacity:1;" d="M 42.585938 4 C 45.253906 4.382812 47.917969 4.824219 50.570312 5.332031 C 50.128906 6.214844 49.691406 7.09375 49.238281 8 C 47.042969 7.558594 44.847656 7.121094 42.585938 6.667969 C 43.023438 14.585938 43.464844 22.507812 43.914062 30.667969 C 44.792969 28.464844 45.671875 26.265625 46.578125 24 C 48.332031 23.558594 50.089844 23.121094 51.898438 22.667969 C 51.898438 30.148438 51.898438 37.625 51.898438 45.332031 C 46.628906 45.992188 46.628906 45.992188 41.253906 46.667969 C 41.222656 40.804688 41.195312 34.941406 41.179688 29.082031 C 41.175781 27.085938 41.164062 25.089844 41.152344 23.09375 C 41.136719 20.230469 41.128906 17.367188 41.125 14.503906 C 41.117188 12.78125 41.109375 11.054688 41.101562 9.277344 C 41.253906 5.332031 41.253906 5.332031 42.585938 4 Z M 42.585938 4 "/>
<path style=" stroke:none;fill-rule:nonzero;fill:rgb(74.901961%,52.156863%,43.137255%);fill-opacity:1;" d="M 82.507812 4 C 82.507812 4.878906 82.507812 5.761719 82.507812 6.667969 C 81.191406 7.105469 79.871094 7.546875 78.515625 8 C 78.597656 9.445312 78.597656 9.445312 78.683594 10.917969 C 78.503906 14.941406 77.515625 17.691406 75.855469 21.332031 C 76.730469 21.332031 77.609375 21.332031 78.515625 21.332031 C 78.515625 28.8125 78.515625 36.292969 78.515625 44 C 80.710938 44 82.90625 44 85.167969 44 C 85.167969 31.238281 85.167969 18.480469 85.167969 5.332031 C 85.609375 5.332031 86.046875 5.332031 86.5 5.332031 C 86.5 18.972656 86.5 32.613281 86.5 46.667969 C 83.425781 46.226562 80.351562 45.785156 77.183594 45.332031 C 77.109375 43.59375 77.109375 43.59375 77.035156 41.824219 C 76.480469 30.355469 76.480469 30.355469 71.863281 20 C 71.421875 19.121094 70.984375 18.238281 70.53125 17.332031 C 71.761719 14.496094 71.761719 14.496094 73.609375 11.25 C 74.207031 10.175781 74.804688 9.101562 75.421875 7.996094 C 77.554688 4.773438 78.644531 4 82.507812 4 Z M 75.855469 24 C 77.183594 26.667969 77.183594 26.667969 77.183594 26.667969 Z M 75.855469 24 "/>
<path style=" stroke:none;fill-rule:nonzero;fill:rgb(65.098039%,32.156863%,18.823529%);fill-opacity:1;" d="M 95.816406 6.667969 C 105.476562 6.667969 115.136719 6.667969 125.09375 6.667969 C 125.09375 8.425781 125.09375 10.1875 125.09375 12 C 117.1875 12.441406 109.28125 12.878906 101.136719 13.332031 C 100.699219 12.011719 100.261719 10.691406 99.808594 9.332031 C 98.929688 9.332031 98.050781 9.332031 97.144531 9.332031 C 97.144531 11.972656 97.144531 14.613281 97.144531 17.332031 C 96.707031 17.332031 96.269531 17.332031 95.816406 17.332031 C 95.816406 13.8125 95.816406 10.292969 95.816406 6.667969 Z M 95.816406 6.667969 "/>
<path style=" stroke:none;fill-rule:nonzero;fill:rgb(66.666667%,34.117647%,21.568627%);fill-opacity:1;" d="M 142.390625 9.332031 C 142.390625 11.535156 142.390625 13.734375 142.390625 16 C 141.515625 16 140.636719 16 139.730469 16 C 140.171875 21.28125 140.609375 26.558594 141.0625 32 C 138.867188 32.441406 136.671875 32.878906 134.40625 33.332031 C 133.96875 32.453125 133.53125 31.574219 133.078125 30.667969 C 134.394531 30.667969 135.710938 30.667969 137.070312 30.667969 C 137.070312 28.90625 137.070312 27.148438 137.070312 25.332031 C 135.3125 26.652344 133.554688 27.972656 131.746094 29.332031 C 131.675781 27.195312 131.621094 25.054688 131.578125 22.917969 C 131.550781 21.726562 131.519531 20.535156 131.484375 19.308594 C 131.746094 16 131.746094 16 134.40625 12 C 137.292969 10.285156 139.023438 9.332031 142.390625 9.332031 Z M 142.390625 9.332031 "/>
<path style=" stroke:none;fill-rule:nonzero;fill:rgb(65.098039%,31.764706%,18.039216%);fill-opacity:1;" d="M 42.585938 6.667969 C 44.78125 6.667969 46.976562 6.667969 49.238281 6.667969 C 51.316406 10.417969 51.316406 10.417969 53.230469 14.667969 C 52.792969 15.988281 52.351562 17.308594 51.898438 18.667969 C 51.023438 18.667969 50.144531 18.667969 49.238281 18.667969 C 48.800781 19.546875 48.359375 20.425781 47.90625 21.332031 C 46.589844 21.992188 46.589844 21.992188 45.246094 22.667969 C 44.832031 26.285156 44.5625 29.785156 44.414062 33.417969 C 44.363281 34.429688 44.3125 35.441406 44.257812 36.480469 C 44.132812 38.988281 44.023438 41.492188 43.914062 44 C 43.476562 44 43.035156 44 42.585938 44 C 42.585938 31.679688 42.585938 19.359375 42.585938 6.667969 Z M 42.585938 6.667969 "/>
<path style=" stroke:none;fill-rule:nonzero;fill:rgb(66.666667%,34.117647%,21.176471%);fill-opacity:1;" d="M 161.023438 25.332031 C 163.65625 25.332031 166.292969 25.332031 169.007812 25.332031 C 169.007812 30.613281 169.007812 35.894531 169.007812 41.332031 C 167.691406 41.332031 166.371094 41.332031 165.015625 41.332031 C 164.578125 40.453125 164.136719 39.574219 163.683594 38.667969 C 162.804688 38.667969 161.929688 38.667969 161.023438 38.667969 C 161.023438 34.265625 161.023438 29.867188 161.023438 25.332031 Z M 161.023438 25.332031 "/>
<path style=" stroke:none;fill-rule:nonzero;fill:rgb(64.705882%,31.764706%,17.647059%);fill-opacity:1;" d="M 106.460938 38.667969 C 112.609375 38.667969 118.757812 38.667969 125.09375 38.667969 C 125.09375 40.425781 125.09375 42.1875 125.09375 44 C 115.429688 44 105.769531 44 95.816406 44 C 95.816406 43.558594 95.816406 43.121094 95.816406 42.667969 C 99.328125 42.226562 102.84375 41.785156 106.460938 41.332031 C 106.460938 40.453125 106.460938 39.574219 106.460938 38.667969 Z M 106.460938 38.667969 "/>
<path style=" stroke:none;fill-rule:nonzero;fill:rgb(65.882353%,32.156863%,19.215686%);fill-opacity:1;" d="M 23.953125 24 C 25.710938 24 27.46875 24 29.277344 24 C 29.277344 24.878906 29.277344 25.761719 29.277344 26.667969 C 30.15625 27.105469 31.035156 27.546875 31.9375 28 C 31.5 28.441406 31.058594 28.878906 30.609375 29.332031 C 31.484375 31.09375 32.363281 32.851562 33.269531 34.667969 C 31.511719 36.867188 29.757812 39.066406 27.945312 41.332031 C 26.191406 40.894531 24.433594 40.453125 22.625 40 C 23.0625 39.121094 23.5 38.238281 23.953125 37.332031 C 24.832031 37.332031 25.710938 37.332031 26.617188 37.332031 C 26.617188 34.691406 26.617188 32.054688 26.617188 29.332031 C 24.417969 29.332031 22.222656 29.332031 19.960938 29.332031 C 21.625 26.667969 21.625 26.667969 23.953125 24 Z M 23.953125 24 "/>
<path style=" stroke:none;fill-rule:nonzero;fill:rgb(64.705882%,31.372549%,17.647059%);fill-opacity:1;" d="M 113.945312 22.582031 C 115.527344 22.59375 117.109375 22.605469 118.738281 22.621094 C 119.957031 22.636719 121.175781 22.652344 122.429688 22.667969 C 122.429688 24.425781 122.429688 26.1875 122.429688 28 C 116.722656 28 111.011719 28 105.128906 28 C 105.128906 27.121094 105.128906 26.238281 105.128906 25.332031 C 104.253906 24.894531 103.375 24.453125 102.46875 24 C 106.308594 22.078125 109.679688 22.542969 113.945312 22.582031 Z M 113.945312 22.582031 "/>
<path style=" stroke:none;fill-rule:nonzero;fill:rgb(70.980392%,42.745098%,31.372549%);fill-opacity:1;" d="M 10.644531 13.332031 C 10.8125 14.1875 10.976562 15.039062 11.144531 15.917969 C 11.558594 17.277344 11.558594 17.277344 11.976562 18.667969 C 12.855469 19.105469 13.734375 19.546875 14.636719 20 C 13.761719 20 12.882812 20 11.976562 20 C 11.539062 22.199219 11.097656 24.398438 10.644531 26.667969 C 11.964844 27.105469 13.28125 27.546875 14.636719 28 C 6.988281 27 6.988281 27 3.992188 24 C 3.824219 19.167969 3.824219 19.167969 3.992188 14.667969 C 6.1875 14.226562 8.382812 13.785156 10.644531 13.332031 Z M 10.644531 13.332031 "/>
<path style=" stroke:none;fill-rule:nonzero;fill:rgb(65.490196%,32.156863%,18.823529%);fill-opacity:1;" d="M 23.953125 5.332031 C 24.394531 7.535156 24.832031 9.734375 25.285156 12 C 20.015625 12 14.746094 12 9.316406 12 C 9.753906 10.238281 10.195312 8.480469 10.644531 6.667969 C 15.269531 5.121094 19.109375 5.242188 23.953125 5.332031 Z M 23.953125 5.332031 "/>
<path style=" stroke:none;fill-rule:nonzero;fill:rgb(74.901961%,49.803922%,40.784314%);fill-opacity:1;" d="M 159.691406 5.332031 C 167.34375 7.5 167.34375 7.5 170.339844 12 C 168.195312 14.769531 168.195312 14.769531 165.015625 17.332031 C 161.003906 16.980469 161.003906 16.980469 156.699219 15.667969 C 155.265625 15.246094 153.828125 14.828125 152.351562 14.394531 C 151.261719 14.046875 150.171875 13.695312 149.046875 13.332031 C 149.046875 12.894531 149.046875 12.453125 149.046875 12 C 154.976562 11.339844 154.976562 11.339844 161.023438 10.667969 C 161.023438 11.546875 161.023438 12.425781 161.023438 13.332031 C 162.339844 12.453125 163.65625 11.574219 165.015625 10.667969 C 163.257812 10.226562 161.503906 9.785156 159.691406 9.332031 C 159.691406 8.011719 159.691406 6.691406 159.691406 5.332031 Z M 159.691406 5.332031 "/>
<path style=" stroke:none;fill-rule:nonzero;fill:rgb(73.72549%,48.627451%,38.823529%);fill-opacity:1;" d="M 10.644531 6.667969 C 10.207031 8.425781 9.769531 10.1875 9.316406 12 C 11.511719 11.558594 13.707031 11.121094 15.96875 10.667969 C 16.410156 11.546875 16.847656 12.425781 17.300781 13.332031 C 15.984375 13.992188 15.984375 13.992188 14.636719 14.667969 C 13.320312 16.648438 13.320312 16.648438 11.976562 18.667969 C 11.539062 17.347656 11.097656 16.027344 10.644531 14.667969 C 8.050781 14.925781 8.050781 14.925781 5.324219 16 C 3.613281 18.644531 3.613281 18.644531 2.660156 21.332031 C 2.175781 12.902344 2.175781 12.902344 4.40625 8.75 C 6.652344 6.667969 6.652344 6.667969 10.644531 6.667969 Z M 10.644531 6.667969 "/>
<path style=" stroke:none;fill-rule:nonzero;fill:rgb(70.588235%,41.568627%,30.588235%);fill-opacity:1;" d="M 62.546875 32 C 64.742188 32 66.9375 32 69.199219 32 C 69.199219 37.332031 69.199219 37.332031 66.539062 41.332031 C 63.378906 41.082031 63.378906 41.082031 59.882812 40 C 58.136719 36.582031 58.136719 36.582031 57.222656 33.332031 C 60.109375 34.007812 62.546875 34.667969 65.207031 36 C 65.207031 35.121094 65.207031 34.238281 65.207031 33.332031 C 64.328125 32.894531 63.449219 32.453125 62.546875 32 Z M 62.546875 32 "/>
<path style=" stroke:none;fill-rule:nonzero;fill:rgb(69.411765%,40%,28.235294%);fill-opacity:1;" d="M 82.507812 4 C 82.507812 4.878906 82.507812 5.761719 82.507812 6.667969 C 81.191406 7.105469 79.871094 7.546875 78.515625 8 C 78.597656 9.445312 78.597656 9.445312 78.683594 10.917969 C 78.503906 14.941406 77.515625 17.691406 75.855469 21.332031 C 76.730469 21.773438 77.609375 22.214844 78.515625 22.667969 C 77.636719 22.667969 76.757812 22.667969 75.855469 22.667969 C 75.414062 23.988281 74.976562 25.308594 74.523438 26.667969 C 74.113281 25.621094 73.699219 24.578125 73.277344 23.5 C 71.957031 20.101562 71.957031 20.101562 70.53125 17.332031 C 71.761719 14.496094 71.761719 14.496094 73.609375 11.25 C 74.207031 10.175781 74.804688 9.101562 75.421875 7.996094 C 77.554688 4.773438 78.644531 4 82.507812 4 Z M 82.507812 4 "/>
<path style=" stroke:none;fill-rule:nonzero;fill:rgb(65.098039%,32.156863%,18.431373%);fill-opacity:1;" d="M 149.046875 5.332031 C 152.558594 5.332031 156.074219 5.332031 159.691406 5.332031 C 159.691406 6.652344 159.691406 7.972656 159.691406 9.332031 C 161.886719 9.332031 164.082031 9.332031 166.347656 9.332031 C 165.90625 10.652344 165.46875 11.972656 165.015625 13.332031 C 163.699219 13.332031 162.378906 13.332031 161.023438 13.332031 C 161.023438 12.453125 161.023438 11.574219 161.023438 10.667969 C 159.707031 11.328125 159.707031 11.328125 158.363281 12 C 155.257812 12.054688 152.152344 12.058594 149.046875 12 C 149.925781 10.679688 150.804688 9.359375 151.707031 8 C 150.828125 7.121094 149.949219 6.238281 149.046875 5.332031 Z M 149.046875 5.332031 "/>
<path style=" stroke:none;fill-rule:nonzero;fill:rgb(74.509804%,49.411765%,39.607843%);fill-opacity:1;" d="M 143.722656 6.667969 C 143.722656 7.988281 143.722656 9.308594 143.722656 10.667969 C 145.480469 11.546875 147.234375 12.425781 149.046875 13.332031 C 147.78125 13.800781 147.78125 13.800781 146.488281 14.28125 C 143.480469 15.765625 143.480469 15.765625 142.621094 18.886719 C 142.34375 20.507812 142.34375 20.507812 142.058594 22.167969 C 141.859375 23.257812 141.660156 24.347656 141.457031 25.46875 C 141.328125 26.304688 141.195312 27.140625 141.0625 28 C 140.621094 28 140.183594 28 139.730469 28 C 139.730469 24.039062 139.730469 20.078125 139.730469 16 C 140.609375 16 141.488281 16 142.390625 16 C 142.390625 13.800781 142.390625 11.601562 142.390625 9.332031 C 140.195312 10.214844 138 11.09375 135.738281 12 C 140.730469 6.667969 140.730469 6.667969 143.722656 6.667969 Z M 143.722656 6.667969 "/>
<path style=" stroke:none;fill-rule:nonzero;fill:rgb(74.117647%,49.411765%,39.607843%);fill-opacity:1;" d="M 130.414062 20 C 130.855469 20 131.292969 20 131.746094 20 C 132.183594 22.199219 132.625 24.398438 133.078125 26.667969 C 134.394531 26.226562 135.710938 25.785156 137.070312 25.332031 C 137.070312 27.09375 137.070312 28.851562 137.070312 30.667969 C 135.75 31.328125 135.75 31.328125 134.40625 32 C 135.285156 32.441406 136.164062 32.878906 137.070312 33.332031 C 136.191406 35.09375 135.3125 36.851562 134.40625 38.667969 C 130.40625 31.988281 130.023438 27.5625 130.414062 20 Z M 130.414062 20 "/>
<path style=" stroke:none;fill-rule:nonzero;fill:rgb(65.490196%,32.156863%,19.215686%);fill-opacity:1;" d="M 142.390625 37.332031 C 147.222656 37.773438 152.054688 38.214844 157.03125 38.667969 C 157.03125 39.546875 157.03125 40.425781 157.03125 41.332031 C 156.152344 41.332031 155.273438 41.332031 154.371094 41.332031 C 154.371094 42.214844 154.371094 43.09375 154.371094 44 C 152.171875 44 149.976562 44 147.714844 44 C 147.714844 43.121094 147.714844 42.238281 147.714844 41.332031 C 145.957031 40.011719 144.203125 38.691406 142.390625 37.332031 Z M 142.390625 37.332031 "/>
<path style=" stroke:none;fill-rule:nonzero;fill:rgb(72.941176%,48.627451%,38.431373%);fill-opacity:1;" d="M 29.277344 24 C 31.855469 24.75 31.855469 24.75 34.601562 26.667969 C 35.765625 31.25 35.765625 31.25 35.929688 36 C 34.613281 37.980469 34.613281 37.980469 33.269531 40 C 32.828125 37.359375 32.390625 34.71875 31.9375 32 C 31.058594 32 30.183594 32 29.277344 32 C 29.277344 29.359375 29.277344 26.71875 29.277344 24 Z M 29.277344 24 "/>
<path style=" stroke:none;fill-rule:nonzero;fill:rgb(72.54902%,46.666667%,36.470588%);fill-opacity:1;" d="M 50.570312 8 C 54.050781 11.15625 56.328125 14.527344 58.554688 18.667969 C 58.554688 19.546875 58.554688 20.425781 58.554688 21.332031 C 54.601562 20.671875 54.601562 20.671875 50.570312 20 C 50.816406 19.257812 51.0625 18.515625 51.316406 17.75 C 52 14.132812 51.453125 11.542969 50.570312 8 Z M 50.570312 8 "/>
<path style=" stroke:none;fill-rule:nonzero;fill:rgb(67.058824%,35.686275%,22.745098%);fill-opacity:1;" d="M 71.863281 18.667969 C 74.523438 21.332031 74.523438 21.332031 74.523438 26.667969 C 72.765625 26.226562 71.011719 25.785156 69.199219 25.332031 C 68.761719 26.214844 68.320312 27.09375 67.871094 28 C 67.621094 24.832031 67.621094 24.832031 67.871094 21.332031 C 69.1875 20.453125 70.503906 19.574219 71.863281 18.667969 Z M 71.863281 18.667969 "/>
<path style=" stroke:none;fill-rule:nonzero;fill:rgb(71.764706%,44.313725%,33.333333%);fill-opacity:1;" d="M 66.539062 24 C 69.171875 24.878906 71.808594 25.761719 74.523438 26.667969 C 73.644531 28.867188 72.765625 31.066406 71.863281 33.332031 C 69.664062 31.132812 67.46875 28.933594 65.207031 26.667969 C 65.648438 25.785156 66.085938 24.90625 66.539062 24 Z M 66.539062 24 "/>
<path style=" stroke:none;fill-rule:nonzero;fill:rgb(65.098039%,31.764706%,19.215686%);fill-opacity:1;" d="M 10.644531 13.332031 C 11.085938 15.09375 11.523438 16.851562 11.976562 18.667969 C 9.34375 19.546875 6.707031 20.425781 3.992188 21.332031 C 3.992188 19.132812 3.992188 16.933594 3.992188 14.667969 C 6.1875 14.226562 8.382812 13.785156 10.644531 13.332031 Z M 10.644531 13.332031 "/>
<path style=" stroke:none;fill-rule:nonzero;fill:rgb(76.470588%,54.117647%,45.490196%);fill-opacity:1;" d="M 82.507812 4 C 82.507812 4.878906 82.507812 5.761719 82.507812 6.667969 C 81.191406 7.105469 79.871094 7.546875 78.515625 8 C 78.515625 10.199219 78.515625 12.398438 78.515625 14.667969 C 77.199219 14.667969 75.878906 14.667969 74.523438 14.667969 C 74.523438 10.496094 75.089844 8.835938 77.183594 5.332031 C 79.847656 4 79.847656 4 82.507812 4 Z M 82.507812 4 "/>
<path style=" stroke:none;fill-rule:nonzero;fill:rgb(69.411765%,39.607843%,29.019608%);fill-opacity:1;" d="M 26.617188 6.667969 C 28.8125 6.667969 31.007812 6.667969 33.269531 6.667969 C 33.269531 8.425781 33.269531 10.1875 33.269531 12 C 31.074219 11.558594 28.878906 11.121094 26.617188 10.667969 C 26.617188 9.347656 26.617188 8.027344 26.617188 6.667969 Z M 26.617188 6.667969 "/>
</g>
</svg>
