<svg xmlns="http://www.w3.org/2000/svg" width="400" height="400"><path d="M83.332 233.332c-9.398 0-17.305-3.203-23.715-9.617C53.207 217.305 50 209.398 50 200s3.207-17.305 9.617-23.715c6.41-6.414 14.317-9.617 23.715-9.617v-50c0-4.414 1.672-8.297 5.02-11.652C91.707 101.672 95.59 100 100 100h66.668c0-9.398 3.203-17.305 9.617-23.715 6.41-6.414 14.317-9.617 23.715-9.617s17.305 3.203 23.715 9.617c6.414 6.41 9.617 14.317 9.617 23.715H300c4.41 0 8.293 1.672 11.648 5.016 3.348 3.355 5.02 7.238 5.02 11.652v50c9.398 0 17.305 3.203 23.715 9.617 6.41 6.41 9.617 14.317 9.617 23.715s-3.207 17.305-9.617 23.715c-6.41 6.414-14.317 9.617-23.715 9.617v83.336c0 4.41-1.672 8.293-5.02 11.648-3.355 3.344-7.238 5.016-11.648 5.016H100c-4.41 0-8.293-1.672-11.648-5.016-3.348-3.355-5.02-7.238-5.02-11.648zm66.633-25c4.613 0 8.55-1.617 11.82-4.848 3.254-3.234 4.883-7.164 4.883-11.785 0-4.61-1.617-8.55-4.852-11.816-3.234-3.254-7.16-4.883-11.78-4.883-4.614 0-8.552 1.617-11.821 4.852-3.254 3.23-4.883 7.16-4.883 11.78 0 4.614 1.617 8.552 4.852 11.817 3.234 3.258 7.16 4.883 11.78 4.883zm100 0c4.613 0 8.55-1.617 11.82-4.848 3.254-3.234 4.883-7.164 4.883-11.785 0-4.61-1.617-8.55-4.852-11.816-3.234-3.254-7.16-4.883-11.78-4.883-4.614 0-8.552 1.617-11.821 4.852-3.254 3.23-4.883 7.16-4.883 11.78 0 4.614 1.617 8.552 4.852 11.817 3.234 3.258 7.16 4.883 11.78 4.883zM150 275h100c2.367 0 4.344-.8 5.934-2.398 1.601-1.602 2.398-3.586 2.398-5.954 0-2.363-.797-4.343-2.398-5.933-1.59-1.586-3.567-2.383-5.934-2.383H150c-2.367 0-4.344.8-5.934 2.402-1.601 1.598-2.398 3.582-2.398 5.95 0 2.367.797 4.343 2.398 5.933 1.59 1.59 3.567 2.383 5.934 2.383zm0 0"/></svg>