<svg xmlns="http://www.w3.org/2000/svg" width="45" height="48" viewBox="0 0 45 45"><path d="M17.625 4.313c-3.375 1.78-4.5 4.03-4.5 8.812 0 8.625 10.219 12.375 16.5 6.094 1.688-1.688 2.25-3.282 2.25-6.094 0-4.875-1.219-7.125-4.688-8.906-3.375-1.782-6.28-1.782-9.562.093zM27 7.5c2.813 2.625 2.813 7.688 0 10.313-4.406 4.03-11.063.937-11.063-5.157 0-3.844 3-7.031 6.563-7.031 1.313 0 3.375.844 4.5 1.875zM14.063 27.375c-4.5 2.25-8.72 8.719-8.25 12.469.28 1.781 1.03 1.875 16.687 1.875 15.656 0 16.406-.094 16.688-1.875.093-1.032-.75-3.75-1.876-6.094-2.624-5.156-8.343-8.438-14.812-8.438-2.625 0-5.906.844-8.438 2.063zm15.468 2.25c3.282 1.5 5.344 3.938 6.469 7.594l.656 2.156H8.344L9 37.219c2.531-7.875 12.281-11.532 20.531-7.594zm0 0"/></svg>