<?xml version="1.0" encoding="UTF-8"?>
<svg xmlns="http://www.w3.org/2000/svg" xmlns:xlink="http://www.w3.org/1999/xlink" width="48px" height="48px" viewBox="0 0 48 48" version="1.1">
<g id="surface1">
<path style=" stroke:none;fill-rule:evenodd;fill:rgb(5.882353%,5.882353%,5.882353%);fill-opacity:1;" d="M 33.058594 12 C 33.019531 11.839844 32.980469 11.675781 32.941406 11.515625 C 32.410156 9.402344 31.582031 7.109375 30.226562 5.300781 C 28.828125 3.4375 26.785156 2 24 2 C 21.214844 2 19.171875 3.4375 17.773438 5.300781 C 16.417969 7.109375 15.585938 9.402344 15.058594 11.515625 C 15.019531 11.675781 14.980469 11.839844 14.941406 12 L 11.742188 12 C 8.582031 12 5.964844 14.449219 5.753906 17.601562 L 4.289062 39.601562 C 4.058594 43.0625 6.804688 46 10.277344 46 L 37.722656 46 C 41.195312 46 43.941406 43.0625 43.710938 39.601562 L 42.246094 17.601562 C 42.035156 14.449219 39.417969 12 36.257812 12 Z M 14.941406 29 C 16.089844 29 17.996094 21.136719 18 19.996094 C 18 19.949219 18 19.902344 18 19.855469 C 18.003906 19.75 18.007812 19.589844 18.015625 19.382812 C 18.027344 18.972656 18.058594 18.378906 18.117188 17.667969 C 18.160156 17.160156 18.21875 16.597656 18.292969 16 L 29.707031 16 C 29.78125 16.597656 29.839844 17.160156 29.882812 17.667969 C 29.941406 18.378906 29.972656 18.972656 29.984375 19.382812 C 29.992188 19.589844 29.996094 19.75 30 19.855469 C 30 19.902344 30 19.953125 30 20 C 30 20 30.941406 29 32.941406 29 C 34.941406 29 34 19.996094 34 19.996094 C 34 19.925781 34 19.855469 33.996094 19.785156 C 33.996094 19.65625 33.992188 19.472656 33.984375 19.242188 C 33.964844 18.777344 33.933594 18.121094 33.867188 17.332031 C 33.832031 16.925781 33.789062 16.476562 33.734375 16 L 36.257812 16 C 37.3125 16 38.183594 16.816406 38.253906 17.867188 L 39.71875 39.867188 C 39.796875 41.019531 38.882812 42 37.722656 42 L 10.277344 42 C 9.117188 42 8.203125 41.019531 8.28125 39.867188 L 9.746094 17.867188 C 9.816406 16.816406 10.6875 16 11.742188 16 L 14.265625 16 C 14.210938 16.476562 14.164062 16.925781 14.132812 17.332031 C 14.066406 18.121094 14.035156 18.777344 14.015625 19.242188 C 14.007812 19.472656 14.003906 19.65625 14.003906 19.785156 C 14 19.855469 14 19.925781 14 19.992188 C 14 21.132812 13.800781 29 14.941406 29 Z M 19.066406 12 L 28.933594 12 C 28.46875 10.304688 27.84375 8.789062 27.023438 7.699219 C 26.171875 6.5625 25.214844 6 24 6 C 22.785156 6 21.828125 6.5625 20.976562 7.699219 C 20.15625 8.789062 19.53125 10.304688 19.066406 12 Z M 19.066406 12 "/>
</g>
</svg>
