<?xml version="1.0" encoding="UTF-8"?>
<svg xmlns="http://www.w3.org/2000/svg" xmlns:xlink="http://www.w3.org/1999/xlink" width="45px" height="48px" viewBox="0 0 45 45" version="1.1">
<g id="surface1">
<path style=" stroke:none;fill-rule:nonzero;fill:rgb(0%,0%,0%);fill-opacity:1;" d="M 8.824219 4.921875 C 6.714844 5.484375 5.203125 6.382812 3.515625 8.070312 C 1.773438 9.828125 0.914062 11.335938 0.335938 13.710938 C -0.507812 17.085938 0.4375 21.742188 2.8125 25.910156 C 5.519531 30.640625 11.265625 36.351562 17.453125 40.484375 C 20.320312 42.382812 21.109375 42.804688 21.640625 42.664062 C 22.253906 42.503906 25.734375 40.253906 27.949219 38.585938 C 36.351562 32.21875 41.34375 25.539062 42.453125 19.210938 C 42.976562 16.226562 42.695312 13.625 41.589844 11.335938 C 39.640625 7.242188 36.035156 4.835938 31.535156 4.625 C 29.828125 4.535156 29.40625 4.570312 28.28125 4.921875 C 26.050781 5.589844 24.679688 6.414062 22.921875 8.171875 L 21.304688 9.773438 L 20.65625 8.984375 C 19.160156 7.136719 16.523438 5.429688 14.308594 4.851562 C 12.832031 4.464844 10.421875 4.5 8.824219 4.921875 Z M 14.359375 7.226562 C 16.59375 7.945312 18.828125 9.84375 19.953125 11.988281 C 20.988281 13.957031 21.8125 13.976562 22.746094 12.039062 C 23.34375 10.828125 24.835938 9.210938 26.140625 8.332031 C 29.144531 6.328125 32.976562 6.292969 35.964844 8.226562 C 37.882812 9.457031 39.359375 11.320312 40.007812 13.289062 C 40.484375 14.75 40.484375 18.226562 40.007812 19.953125 C 38.265625 26.28125 32.5 32.941406 23.609375 38.882812 C 22.484375 39.640625 21.460938 40.253906 21.375 40.253906 C 21.289062 40.253906 20.179688 39.570312 18.914062 38.726562 C 12.058594 34.171875 6.695312 28.652344 4.21875 23.640625 C 2.9375 21.058594 2.460938 19.421875 2.335938 17.140625 C 2.179688 14.167969 2.953125 11.898438 4.835938 9.878906 C 7.398438 7.101562 10.898438 6.132812 14.359375 7.226562 Z M 14.359375 7.226562 "/>
</g>
</svg>
