<?xml version="1.0" encoding="UTF-8"?>
<svg xmlns="http://www.w3.org/2000/svg" xmlns:xlink="http://www.w3.org/1999/xlink" width="48px" height="px" viewBox="0 0 48 48" version="1.1">
<g id="surface1">
<path style="fill:none;stroke-width:2;stroke-linecap:round;stroke-linejoin:round;stroke:rgb(0%,0%,0%);stroke-opacity:1;stroke-miterlimit:4;" d="M 20 21 L 20 19 C 20 16.791016 18.208984 15 16 15 L 8 15 C 5.791016 15 4 16.791016 4 19 L 4 21 " transform="matrix(2,0,0,2,0,0)"/>
<path style="fill:none;stroke-width:2;stroke-linecap:round;stroke-linejoin:round;stroke:rgb(0%,0%,0%);stroke-opacity:1;stroke-miterlimit:4;" d="M 16 7 C 16 9.208984 14.208984 11 12 11 C 9.791016 11 8 9.208984 8 7 C 8 4.791016 9.791016 3 12 3 C 14.208984 3 16 4.791016 16 7 Z M 16 7 " transform="matrix(2,0,0,2,0,0)"/>
</g>
</svg>
