<?xml version="1.0" encoding="UTF-8"?>
<svg xmlns="http://www.w3.org/2000/svg" xmlns:xlink="http://www.w3.org/1999/xlink" width="45px" height="48px" viewBox="0 0 45 45" version="1.1">
<g id="surface1">
<path style=" stroke:none;fill-rule:nonzero;fill:rgb(0%,0%,0%);fill-opacity:1;" d="M 17.625 4.3125 C 14.25 6.09375 13.125 8.34375 13.125 13.125 C 13.125 21.75 23.34375 25.5 29.625 19.21875 C 31.3125 17.53125 31.875 15.9375 31.875 13.125 C 31.875 8.25 30.65625 6 27.1875 4.21875 C 23.8125 2.4375 20.90625 2.4375 17.625 4.3125 Z M 27 7.5 C 29.8125 10.125 29.8125 15.1875 27 17.8125 C 22.59375 21.84375 15.9375 18.75 15.9375 12.65625 C 15.9375 8.8125 18.9375 5.625 22.5 5.625 C 23.8125 5.625 25.875 6.46875 27 7.5 Z M 27 7.5 "/>
<path style=" stroke:none;fill-rule:nonzero;fill:rgb(0%,0%,0%);fill-opacity:1;" d="M 14.0625 27.375 C 9.5625 29.625 5.34375 36.09375 5.8125 39.84375 C 6.09375 41.625 6.84375 41.71875 22.5 41.71875 C 38.15625 41.71875 38.90625 41.625 39.1875 39.84375 C 39.28125 38.8125 38.4375 36.09375 37.3125 33.75 C 34.6875 28.59375 28.96875 25.3125 22.5 25.3125 C 19.875 25.3125 16.59375 26.15625 14.0625 27.375 Z M 29.53125 29.625 C 32.8125 31.125 34.875 33.5625 36 37.21875 L 36.65625 39.375 L 8.34375 39.375 L 9 37.21875 C 11.53125 29.34375 21.28125 25.6875 29.53125 29.625 Z M 29.53125 29.625 "/>
</g>
</svg>
